<?xml version="1.0" encoding="UTF-8"?>
<svg version="1.1" xmlns="http://www.w3.org/2000/svg" width="512" height="512">
<path d="M0 0 C25.57638307 22.4832177 25.57638307 22.4832177 26.7824707 38.18212891 C27.01958683 49.43890519 24.79791182 57.29512956 17.6027832 66.03759766 C10.66348494 72.92422572 2.04991484 76.35342494 -7.64331055 76.45556641 C-22.07713424 76.18722722 -29.32563059 70.38952669 -39.10424805 60.36572266 C-61.37277227 37.61864849 -89.94954417 24.65158025 -121.9284668 24.03271484 C-156.24334552 24.15354188 -185.34979395 37.50067871 -209.39233398 61.65014648 C-230.84302022 83.85676486 -239.99703102 113.57576736 -239.87963867 143.92797852 C-239.67102494 154.02107737 -238.2845227 163.40253053 -235.45581055 173.08056641 C-235.10518555 174.29357422 -234.75456055 175.50658203 -234.39331055 176.75634766 C-224.23630014 207.89745943 -202.37348994 230.57173558 -173.76391602 245.61450195 C-165.92143101 249.55920154 -157.97948835 252.07292329 -149.45581055 254.08056641 C-148.49674805 254.31259766 -147.53768555 254.54462891 -146.54956055 254.78369141 C-116.85794435 261.04397193 -85.41369287 254.50999939 -60.08081055 238.14306641 C-50.42121237 231.35382372 -41.99098116 223.91126605 -33.93310547 215.30883789 C-26.81406285 207.90808224 -18.35700706 204.18344869 -8.08081055 203.76806641 C1.18317426 204.02318475 9.75378165 207.5154743 16.4543457 213.90087891 C24.53417225 222.64973568 26.93137363 230.70606127 26.8215332 242.47119141 C26.15612476 251.13087316 22.05939444 257.60512484 16.54418945 264.08056641 C15.88418945 264.86173828 15.22418945 265.64291016 14.54418945 266.44775391 C-16.73568015 302.30789013 -62.73248139 322.93301113 -109.72998047 326.8996582 C-124.33183486 327.86875575 -138.99153054 327.24217956 -153.45581055 325.08056641 C-154.18735352 324.97292969 -154.91889648 324.86529297 -155.67260742 324.75439453 C-189.69761769 319.42009266 -221.39846915 303.31168246 -246.89379883 280.47509766 C-248.31721093 279.20430523 -249.75865408 277.95378281 -251.2019043 276.70556641 C-262.89981869 266.48585961 -271.85435995 254.91614843 -280.45581055 242.08056641 C-281.18928711 240.98744141 -281.92276367 239.89431641 -282.6784668 238.76806641 C-309.4023738 197.11489923 -316.17573901 145.69431307 -305.81274414 97.74023438 C-301.89448222 80.97335169 -295.73573681 65.16227309 -287.45581055 50.08056641 C-287.1079248 49.44666992 -286.76003906 48.81277344 -286.40161133 48.15966797 C-278.77984357 34.47885646 -269.20901426 22.44210444 -258.45581055 11.08056641 C-257.58827148 10.14857422 -256.72073242 9.21658203 -255.8269043 8.25634766 C-190.003761 -61.0311716 -77.65164797 -62.26852001 0 0 Z " fill="#EC9843" transform="translate(369.455810546875,90.91943359375)"/>
<path d="M0 0 C0 0.33 0 0.66 0 1 C-1.12535156 1.09796875 -2.25070313 1.1959375 -3.41015625 1.296875 C-37.55780907 4.51587987 -66.2818276 19.15888174 -88.36914062 45.64160156 C-107.92917812 70.63840539 -115.24151917 102.61480514 -111.67480469 133.84765625 C-110.83371923 139.34029221 -109.55795576 144.66967621 -108 150 C-107.649375 151.21300781 -107.29875 152.42601562 -106.9375 153.67578125 C-96.78048959 184.81689302 -74.91767939 207.49116917 -46.30810547 222.53393555 C-38.46562046 226.47863513 -30.5236778 228.99235688 -22 231 C-20.56140625 231.34804688 -20.56140625 231.34804688 -19.09375 231.703125 C10.5978662 237.96340552 42.04211768 231.42943298 67.375 215.0625 C77.03459818 208.27325732 85.46482938 200.83069964 93.52270508 192.22827148 C100.6417477 184.82751584 109.09880349 181.10288228 119.375 180.6875 C128.6389848 180.94261834 137.20959219 184.4349079 143.91015625 190.8203125 C151.9899828 199.56916927 154.38718418 207.62549486 154.27734375 219.390625 C153.6119353 228.05030675 149.51520499 234.52455843 144 241 C143.34 241.78117188 142.68 242.56234375 142 243.3671875 C110.7201304 279.22732372 64.72332915 299.85244473 17.72583008 303.8190918 C3.12397569 304.78818934 -11.53572 304.16161315 -26 302 C-26.73154297 301.89236328 -27.46308594 301.78472656 -28.21679688 301.67382812 C-62.24180714 296.33952625 -93.94265861 280.23111606 -119.43798828 257.39453125 C-120.86140038 256.12373883 -122.30284353 254.87321641 -123.74609375 253.625 C-142.45733281 237.27820769 -142.45733281 237.27820769 -144 228.23828125 C-144.165 227.28244141 -144.33 226.32660156 -144.5 225.34179688 C-144.665 224.34212891 -144.83 223.34246094 -145 222.3125 C-145.165 221.36310547 -145.33 220.41371094 -145.5 219.43554688 C-146.03284126 216.29469739 -146.5231563 213.14983545 -147 210 C-147.18385254 208.81631836 -147.36770508 207.63263672 -147.55712891 206.41308594 C-149.15140087 195.14880387 -149.39911299 183.99086533 -149.375 172.625 C-149.37445618 171.65811249 -149.37391235 170.69122498 -149.37335205 169.69503784 C-149.33323738 154.14739421 -148.52915414 139.20375831 -145 124 C-144.79101074 123.08895508 -144.58202148 122.17791016 -144.36669922 121.23925781 C-138.14862338 95.18388982 -126.30298465 71.40764931 -109 51 C-108.2265625 50.08476562 -107.453125 49.16953125 -106.65625 48.2265625 C-87.60203011 26.42155734 -61.99729805 10.44026675 -34 3 C-32.75347656 2.66355469 -31.50695312 2.32710938 -30.22265625 1.98046875 C-20.14012279 -0.37606789 -10.28216943 -0.29883593 0 0 Z " fill="#29A885" transform="translate(242,114)"/>
<path d="M0 0 C26.07 0 52.14 0 79 0 C79 0.66 79 1.32 79 2 C96.49 2 113.98 2 132 2 C132 2.66 132 3.32 132 4 C141.57 4 151.14 4 161 4 C161 4.66 161 5.32 161 6 C168.59 6 176.18 6 184 6 C184 6.66 184 7.32 184 8 C189.61 8 195.22 8 201 8 C201 8.66 201 9.32 201 10 C205.95 10 210.9 10 216 10 C216 10.99 216 11.98 216 13 C218.97 13 221.94 13 225 13 C225 13.66 225 14.32 225 15 C226.19625 14.95875 227.3925 14.9175 228.625 14.875 C232.42329953 14.86148292 235.44975618 15.57990247 239 17 C239 17.66 239 18.32 239 19 C240.65 19 242.3 19 244 19 C244 19.66 244 20.32 244 21 C244.66 21 245.32 21 246 21 C246 21.66 246 22.32 246 23 C246.66 23 247.32 23 248 23 C248 24.98 248 26.96 248 29 C247.34 29 246.68 29 246 29 C246 30.65 246 32.3 246 34 C244.35 34 242.7 34 241 34 C241 34.66 241 35.32 241 36 C239.68 36 238.36 36 237 36 C237 36.66 237 37.32 237 38 C235.02 38 233.04 38 231 38 C231 38.66 231 39.32 231 40 C227.7 40 224.4 40 221 40 C221 40.66 221 41.32 221 42 C217.37 42 213.74 42 210 42 C210 42.66 210 43.32 210 44 C209.00097656 44.04898438 208.00195312 44.09796875 206.97265625 44.1484375 C205.68230469 44.22320312 204.39195312 44.29796875 203.0625 44.375 C201.77472656 44.44460938 200.48695313 44.51421875 199.16015625 44.5859375 C197.59587891 44.79089844 197.59587891 44.79089844 196 45 C195.67 45.66 195.34 46.32 195 47 C194.42967041 47.02505615 193.85934082 47.0501123 193.27172852 47.07592773 C190.70173843 47.19156549 188.13214473 47.31443624 185.5625 47.4375 C184.66466797 47.47681641 183.76683594 47.51613281 182.84179688 47.55664062 C181.98779297 47.59853516 181.13378906 47.64042969 180.25390625 47.68359375 C179.46314697 47.72025146 178.6723877 47.75690918 177.85766602 47.79467773 C175.98598559 47.80563257 175.98598559 47.80563257 175 49 C173.14630389 49.08737645 171.28932459 49.10698153 169.43359375 49.09765625 C168.30888672 49.09443359 167.18417969 49.09121094 166.02539062 49.08789062 C164.84138672 49.07951172 163.65738281 49.07113281 162.4375 49.0625 C161.24962891 49.05798828 160.06175781 49.05347656 158.83789062 49.04882812 C155.89187774 49.03699675 152.94596319 49.02051287 150 49 C150 49.66 150 50.32 150 51 C138.12 51 126.24 51 114 51 C114 51.66 114 52.32 114 53 C94.59008588 53.02332763 75.18017459 53.0409785 55.77024937 53.05181217 C46.75853063 53.05697542 37.74682058 53.06401866 28.73510742 53.07543945 C20.8834045 53.08538541 13.03170786 53.09185322 5.17999882 53.09408849 C1.01996548 53.09539575 -3.14004985 53.09848255 -7.30007744 53.10573006 C-11.21108412 53.11248889 -15.12206527 53.11461724 -19.03307724 53.11310768 C-20.47267228 53.11338407 -21.91226813 53.11539001 -23.35185814 53.11920547 C-25.30894233 53.12414051 -27.26604004 53.12239807 -29.22312927 53.12025452 C-30.32098472 53.12117631 -31.41884016 53.1220981 -32.54996395 53.12304783 C-35 53 -35 53 -36 52 C-38.57988885 51.85236034 -41.13648093 51.76504101 -43.71875 51.71875 C-44.49182495 51.70034058 -45.2648999 51.68193115 -46.06140137 51.66296387 C-48.54085468 51.60403353 -51.02037753 51.55128931 -53.5 51.5 C-56.76057003 51.43255732 -60.02090865 51.35888931 -63.28125 51.28125 C-64.03853394 51.26767456 -64.79581787 51.25409912 -65.5760498 51.2401123 C-70.88719819 51.11280181 -70.88719819 51.11280181 -72 50 C-73.85174706 49.84213692 -75.7090911 49.74892644 -77.56640625 49.68359375 C-79.2534668 49.62075195 -79.2534668 49.62075195 -80.97460938 49.55664062 C-82.75061523 49.49766602 -82.75061523 49.49766602 -84.5625 49.4375 C-85.75037109 49.39431641 -86.93824219 49.35113281 -88.16210938 49.30664062 C-91.10794784 49.20016454 -94.0538743 49.09815159 -97 49 C-97 48.34 -97 47.68 -97 47 C-103.27 47 -109.54 47 -116 47 C-116.33 46.01 -116.66 45.02 -117 44 C-121.62 44 -126.24 44 -131 44 C-131 43.34 -131 42.68 -131 42 C-134.63 42 -138.26 42 -142 42 C-142 41.34 -142 40.68 -142 40 C-145.63 40 -149.26 40 -153 40 C-153 39.34 -153 38.68 -153 38 C-154.98 38 -156.96 38 -159 38 C-159 37.34 -159 36.68 -159 36 C-160.32 36 -161.64 36 -163 36 C-163 35.34 -163 34.68 -163 34 C-164.32 34 -165.64 34 -167 34 C-168.80230168 30.17010894 -169.19622241 27.21878192 -169 23 C-168.34 23 -167.68 23 -167 23 C-167 22.34 -167 21.68 -167 21 C-166.34 21 -165.68 21 -165 21 C-165 20.34 -165 19.68 -165 19 C-163.68 19 -162.36 19 -161 19 C-161 18.34 -161 17.68 -161 17 C-159.02 17 -157.04 17 -155 17 C-155 16.34 -155 15.68 -155 15 C-152.03 15 -149.06 15 -146 15 C-146 14.34 -146 13.68 -146 13 C-142.92382812 12.70703125 -142.92382812 12.70703125 -139.84765625 12.4140625 C-139.23792969 12.27742188 -138.62820312 12.14078125 -138 12 C-137.67 11.34 -137.34 10.68 -137 10 C-134.67616498 9.718235 -132.33823176 9.54828316 -130 9.4375 C-125.67859865 9.61583954 -125.67859865 9.61583954 -122 8 C-118.57529995 7.72962894 -115.15760696 7.55370342 -111.7265625 7.39453125 C-108.05812952 7.53841351 -108.05812952 7.53841351 -105 6 C-103.29227642 5.91286169 -101.58101351 5.89299993 -99.87109375 5.90234375 C-98.31938477 5.90717773 -98.31938477 5.90717773 -96.73632812 5.91210938 C-95.64771484 5.92048828 -94.55910156 5.92886719 -93.4375 5.9375 C-91.7987793 5.94426758 -91.7987793 5.94426758 -90.12695312 5.95117188 C-87.41791505 5.96300174 -84.70898401 5.97948457 -82 6 C-82 5.34 -82 4.68 -82 4 C-72.43 4 -62.86 4 -53 4 C-53 3.34 -53 2.68 -53 2 C-35.51 2 -18.02 2 0 2 C0 1.34 0 0.68 0 0 Z " fill="#182F3F" transform="translate(206,433)"/>
<path d="M0 0 C0.77223699 -0.00367669 1.54447398 -0.00735338 2.34011209 -0.01114148 C4.93006641 -0.02216223 7.51998059 -0.02601944 10.10995483 -0.02983093 C11.96621833 -0.03609685 13.82248058 -0.04274377 15.67874146 -0.04974365 C21.77738575 -0.07077309 27.87603026 -0.08114576 33.97470093 -0.09111023 C36.07574858 -0.09515836 38.17679609 -0.0992753 40.27784348 -0.10346031 C50.15032415 -0.12251039 60.02279736 -0.13674119 69.89529288 -0.14507228 C81.28288261 -0.15484106 92.67027779 -0.18115205 104.05779898 -0.22157317 C112.86475876 -0.25175901 121.67166284 -0.26654355 130.47867334 -0.26985329 C135.73616125 -0.27220117 140.99344126 -0.28112741 146.25087357 -0.30631447 C151.2003371 -0.32964297 156.14945655 -0.33380917 161.09896088 -0.32355309 C162.91051505 -0.32305876 164.72208643 -0.3293486 166.53358841 -0.34310913 C180.1961131 -0.44104302 189.93239209 0.89683449 200.17001343 10.63545227 C207.41558744 18.89592052 208.85890164 27.65358368 208.65048218 38.31513977 C208.03789377 46.77921334 204.24554324 54.06550457 198.37313843 60.14717102 C187.36363212 69.46615812 175.18282725 69.59058124 161.43002319 69.55122375 C159.62375467 69.55693391 157.81748976 69.56390066 156.01123047 69.57202148 C151.12895589 69.58989617 146.2468616 69.58879531 141.36456418 69.5830791 C137.27920657 69.57997916 133.19388319 69.5860886 129.10853046 69.59211785 C119.46647929 69.60614263 109.82451677 69.60461869 100.1824646 69.59321594 C90.25535423 69.58173508 80.32851403 69.59581458 70.40143925 69.62261242 C61.85844197 69.64480535 53.31552927 69.65139875 44.77250522 69.64553601 C39.67885834 69.64217403 34.58538464 69.64453099 29.49176216 69.66178703 C24.70058875 69.67731158 19.90981413 69.67323973 15.11865616 69.65448189 C13.36719397 69.65081131 11.61570186 69.65385949 9.86426735 69.66436768 C-2.94673854 69.73532318 -14.6279847 68.72319977 -24.40029907 59.46748352 C-31.42964692 52.08221932 -34.75081239 43.34212582 -34.62686157 33.14717102 C-33.81342634 22.89207689 -30.10004218 14.78222061 -22.59170532 7.71748352 C-15.4091645 1.97716262 -9.07200361 -0.00232037 0 0 Z " fill="#A21E44" transform="translate(255.62686157226563,196.8528289794922)"/>
<path d="M0 0 C22.64441868 -0.09353114 45.28880541 -0.16402226 67.93337822 -0.20724869 C78.44816427 -0.22785488 88.96283015 -0.25593836 99.47753906 -0.30175781 C108.64447618 -0.34168502 117.81132624 -0.36744693 126.9783479 -0.37635398 C131.83014591 -0.38155875 136.6816949 -0.39375137 141.53341293 -0.42292023 C146.10525772 -0.45018233 150.67675222 -0.45842326 155.24867058 -0.45243073 C156.92154917 -0.45352615 158.59444015 -0.46141555 160.26724815 -0.4768219 C173.50289838 -0.59268423 182.90339689 1.07703241 192.796875 10.48828125 C200.04244901 18.7487495 201.48576321 27.50641266 201.27734375 38.16796875 C200.66475535 46.63204232 196.87240481 53.91833355 191 60 C180.74514931 68.68020951 169.81029278 69.44295575 156.8046875 69.29296875 C155.36166834 69.28736089 153.91864341 69.28309643 152.47561646 69.28010559 C148.71085333 69.26875022 144.94644746 69.23936567 141.18182373 69.20599365 C137.32699412 69.17508974 133.47210576 69.16155721 129.6171875 69.14648438 C122.07796361 69.11448499 114.53903221 69.06340436 107 69 C106.66516602 67.9066333 106.33033203 66.8132666 105.98535156 65.68676758 C105.53725443 64.23514402 105.08900414 62.78356773 104.640625 61.33203125 C104.42100098 60.61341919 104.20137695 59.89480713 103.97509766 59.15441895 C98.29925516 40.83359525 86.14190444 27.87523987 69.45166016 18.81445312 C48.51420107 8.06547488 23.5399828 1.51479088 0 1 C0 0.67 0 0.34 0 0 Z " fill="#40B3B9" transform="translate(263,197)"/>
<path d="M0 0 C11.88 0 23.76 0 36 0 C36 0.66 36 1.32 36 2 C29.07 2 22.14 2 15 2 C15 2.66 15 3.32 15 4 C2.46 4 -10.08 4 -23 4 C-23 4.66 -23 5.32 -23 6 C-26 8 -26 8 -27.86889648 7.63330078 C-28.57216064 7.42431152 -29.2754248 7.21532227 -30 7 C-31.69738278 6.90946836 -33.39786228 6.86936214 -35.09765625 6.8671875 C-36.06380859 6.86589844 -37.02996094 6.86460937 -38.02539062 6.86328125 C-39.52875977 6.86908203 -39.52875977 6.86908203 -41.0625 6.875 C-42.06861328 6.87113281 -43.07472656 6.86726563 -44.11132812 6.86328125 C-45.07619141 6.86457031 -46.04105469 6.86585938 -47.03515625 6.8671875 C-48.35592163 6.86887939 -48.35592163 6.86887939 -49.70336914 6.87060547 C-52.16250665 6.90841227 -52.16250665 6.90841227 -55 8 C-55 7.34 -55 6.68 -55 6 C-57.97 6 -60.94 6 -64 6 C-64 6.66 -64 7.32 -64 8 C-72.91 8 -81.82 8 -91 8 C-91 8.66 -91 9.32 -91 10 C-98.18050184 10.71148265 -104.87028851 11.25818438 -112 10 C-112 10.66 -112 11.32 -112 12 C-116.29 12 -120.58 12 -125 12 C-125 12.99 -125 13.98 -125 15 C-126.08667969 15.02126953 -126.08667969 15.02126953 -127.1953125 15.04296875 C-134.09838742 15.38352045 -137.04525459 16.27570787 -142 21 C-145.375 22.3125 -145.375 22.3125 -148 23 C-148 24.98 -148 26.96 -148 29 C-147.34 29 -146.68 29 -146 29 C-146 30.65 -146 32.3 -146 34 C-145.34 34 -144.68 34 -144 34 C-144 35.32 -144 36.64 -144 38 C-140.7 38 -137.4 38 -134 38 C-134 38.66 -134 39.32 -134 40 C-129.05 40 -124.1 40 -119 40 C-119 40.66 -119 41.32 -119 42 C-114.05 42 -109.1 42 -104 42 C-104 42.99 -104 43.98 -104 45 C-93.605 44.505 -93.605 44.505 -83 44 C-82.67 44.99 -82.34 45.98 -82 47 C-81.40719238 46.92273682 -80.81438477 46.84547363 -80.20361328 46.76586914 C-73.67813406 46.00306006 -67.42390904 46.03739109 -60.875 46.4375 C-59.91851562 46.48970703 -58.96203125 46.54191406 -57.9765625 46.59570312 C-55.65056581 46.72363294 -53.32520281 46.85848545 -51 47 C-51 47.66 -51 48.32 -51 49 C-50.24380371 48.99476318 -49.48760742 48.98952637 -48.70849609 48.98413086 C-45.26400593 48.96327276 -41.8195291 48.95031174 -38.375 48.9375 C-36.59029297 48.92493164 -36.59029297 48.92493164 -34.76953125 48.91210938 C-33.61582031 48.90888672 -32.46210938 48.90566406 -31.2734375 48.90234375 C-29.68668213 48.89448853 -29.68668213 48.89448853 -28.06787109 48.88647461 C-24.9605435 49.00146007 -22.06043986 49.46871572 -19 50 C-17.12968492 50.13751836 -15.25672795 50.24271295 -13.3828125 50.31640625 C-12.36445313 50.35830078 -11.34609375 50.40019531 -10.296875 50.44335938 C-8.72679687 50.50233398 -8.72679687 50.50233398 -7.125 50.5625 C-6.05507812 50.60568359 -4.98515625 50.64886719 -3.8828125 50.69335938 C-1.25532246 50.79892817 1.37225422 50.90103791 4 51 C4 51.66 4 52.32 4 53 C-1.53588533 53.02464775 -7.071739 53.04283496 -12.60766602 53.05493164 C-14.4924373 53.05997244 -16.37720465 53.06680498 -18.26196289 53.07543945 C-20.96501636 53.08751617 -23.66801831 53.09323068 -26.37109375 53.09765625 C-27.21900986 53.10281754 -28.06692596 53.10797882 -28.9405365 53.11329651 C-30.96071068 53.11349195 -32.98077934 53.06206211 -35 53 C-35.33 52.67 -35.66 52.34 -36 52 C-38.57988885 51.85236034 -41.13648093 51.76504101 -43.71875 51.71875 C-44.49182495 51.70034058 -45.2648999 51.68193115 -46.06140137 51.66296387 C-48.54085468 51.60403353 -51.02037753 51.55128931 -53.5 51.5 C-56.76057003 51.43255732 -60.02090865 51.35888931 -63.28125 51.28125 C-64.03853394 51.26767456 -64.79581787 51.25409912 -65.5760498 51.2401123 C-70.88719819 51.11280181 -70.88719819 51.11280181 -72 50 C-73.85174706 49.84213692 -75.7090911 49.74892644 -77.56640625 49.68359375 C-79.2534668 49.62075195 -79.2534668 49.62075195 -80.97460938 49.55664062 C-82.75061523 49.49766602 -82.75061523 49.49766602 -84.5625 49.4375 C-85.75037109 49.39431641 -86.93824219 49.35113281 -88.16210938 49.30664062 C-91.10794784 49.20016454 -94.0538743 49.09815159 -97 49 C-97 48.34 -97 47.68 -97 47 C-103.27 47 -109.54 47 -116 47 C-116.33 46.01 -116.66 45.02 -117 44 C-121.62 44 -126.24 44 -131 44 C-131 43.34 -131 42.68 -131 42 C-134.63 42 -138.26 42 -142 42 C-142 41.34 -142 40.68 -142 40 C-145.63 40 -149.26 40 -153 40 C-153 39.34 -153 38.68 -153 38 C-154.98 38 -156.96 38 -159 38 C-159 37.34 -159 36.68 -159 36 C-160.32 36 -161.64 36 -163 36 C-163 35.34 -163 34.68 -163 34 C-164.32 34 -165.64 34 -167 34 C-168.80230168 30.17010894 -169.19622241 27.21878192 -169 23 C-168.34 23 -167.68 23 -167 23 C-167 22.34 -167 21.68 -167 21 C-166.34 21 -165.68 21 -165 21 C-165 20.34 -165 19.68 -165 19 C-163.68 19 -162.36 19 -161 19 C-161 18.34 -161 17.68 -161 17 C-159.02 17 -157.04 17 -155 17 C-155 16.34 -155 15.68 -155 15 C-152.03 15 -149.06 15 -146 15 C-146 14.34 -146 13.68 -146 13 C-142.92382812 12.70703125 -142.92382812 12.70703125 -139.84765625 12.4140625 C-139.23792969 12.27742188 -138.62820312 12.14078125 -138 12 C-137.67 11.34 -137.34 10.68 -137 10 C-134.67616498 9.718235 -132.33823176 9.54828316 -130 9.4375 C-125.67859865 9.61583954 -125.67859865 9.61583954 -122 8 C-118.57529995 7.72962894 -115.15760696 7.55370342 -111.7265625 7.39453125 C-108.05812952 7.53841351 -108.05812952 7.53841351 -105 6 C-103.29227642 5.91286169 -101.58101351 5.89299993 -99.87109375 5.90234375 C-98.31938477 5.90717773 -98.31938477 5.90717773 -96.73632812 5.91210938 C-95.64771484 5.92048828 -94.55910156 5.92886719 -93.4375 5.9375 C-91.7987793 5.94426758 -91.7987793 5.94426758 -90.12695312 5.95117188 C-87.41791505 5.96300174 -84.70898401 5.97948457 -82 6 C-82 5.34 -82 4.68 -82 4 C-72.43 4 -62.86 4 -53 4 C-53 3.34 -53 2.68 -53 2 C-35.51 2 -18.02 2 0 2 C0 1.34 0 0.68 0 0 Z " fill="#021223" transform="translate(206,433)"/>
<path d="M0 0 C11.88 0 23.76 0 36 0 C36 0.66 36 1.32 36 2 C53.49 2 70.98 2 89 2 C89 2.66 89 3.32 89 4 C98.57 4 108.14 4 118 4 C118 4.66 118 5.32 118 6 C125.59 6 133.18 6 141 6 C141 6.66 141 7.32 141 8 C146.61 8 152.22 8 158 8 C158 8.66 158 9.32 158 10 C162.95 10 167.9 10 173 10 C173 10.99 173 11.98 173 13 C175.97 13 178.94 13 182 13 C182 13.66 182 14.32 182 15 C183.19625 14.95875 184.3925 14.9175 185.625 14.875 C189.42329953 14.86148292 192.44975618 15.57990247 196 17 C196 17.66 196 18.32 196 19 C197.65 19 199.3 19 201 19 C201 19.66 201 20.32 201 21 C201.66 21 202.32 21 203 21 C203 21.66 203 22.32 203 23 C203.66 23 204.32 23 205 23 C205 24.98 205 26.96 205 29 C204.34 29 203.68 29 203 29 C203 30.65 203 32.3 203 34 C201.35 34 199.7 34 198 34 C198 34.66 198 35.32 198 36 C196.68 36 195.36 36 194 36 C194 36.66 194 37.32 194 38 C192.02 38 190.04 38 188 38 C188 38.66 188 39.32 188 40 C184.7 40 181.4 40 178 40 C178 40.66 178 41.32 178 42 C174.37 42 170.74 42 167 42 C167 42.66 167 43.32 167 44 C166.00097656 44.04898438 165.00195312 44.09796875 163.97265625 44.1484375 C162.68230469 44.22320312 161.39195312 44.29796875 160.0625 44.375 C158.77472656 44.44460938 157.48695313 44.51421875 156.16015625 44.5859375 C154.59587891 44.79089844 154.59587891 44.79089844 153 45 C152.67 45.66 152.34 46.32 152 47 C151.14450562 47.03758423 151.14450562 47.03758423 150.27172852 47.07592773 C147.70173843 47.19156549 145.13214473 47.31443624 142.5625 47.4375 C141.66466797 47.47681641 140.76683594 47.51613281 139.84179688 47.55664062 C138.98779297 47.59853516 138.13378906 47.64042969 137.25390625 47.68359375 C136.46314697 47.72025146 135.6723877 47.75690918 134.85766602 47.79467773 C132.98598559 47.80563257 132.98598559 47.80563257 132 49 C130.14630389 49.08737645 128.28932459 49.10698153 126.43359375 49.09765625 C125.30888672 49.09443359 124.18417969 49.09121094 123.02539062 49.08789062 C121.84138672 49.07951172 120.65738281 49.07113281 119.4375 49.0625 C118.24962891 49.05798828 117.06175781 49.05347656 115.83789062 49.04882812 C112.89187774 49.03699675 109.94596319 49.02051287 107 49 C107 49.66 107 50.32 107 51 C95.12 51 83.24 51 71 51 C71 51.66 71 52.32 71 53 C57.8 53 44.6 53 31 53 C31 52.34 31 51.68 31 51 C40.9 51 50.8 51 61 51 C61 50.34 61 49.68 61 49 C69.58 49 78.16 49 87 49 C87 48.34 87 47.68 87 47 C97.23 47 107.46 47 118 47 C118 46.34 118 45.68 118 45 C124.93 45 131.86 45 139 45 C139 44.01 139 43.02 139 42 C140.98 42 142.96 42 145 42 C145 41.34 145 40.68 145 40 C147.31 40 149.62 40 152 40 C152 40.66 152 41.32 152 42 C152.66 42 153.32 42 154 42 C154 41.34 154 40.68 154 40 C158.95 40 163.9 40 169 40 C169 39.34 169 38.68 169 38 C169.66 38 170.32 38 171 38 C171 37.34 171 36.68 171 36 C172.65 36 174.3 36 176 36 C176 36.66 176 37.32 176 38 C177.32 38 178.64 38 180 38 C180 37.34 180 36.68 180 36 C183.4019487 33.90649311 186.05272412 33.82057837 190 34 C190 33.34 190 32.68 190 32 C190.66 32 191.32 32 192 32 C192 31.01 192 30.02 192 29 C192.66 29 193.32 29 194 29 C194 27.02 194 25.04 194 23 C192.68 23 191.36 23 190 23 C190 22.34 190 21.68 190 21 C187.36 21 184.72 21 182 21 C182 19.68 182 18.36 182 17 C180.9275 16.855625 179.855 16.71125 178.75 16.5625 C175 16 175 16 173.25390625 15.46484375 C169.26196213 14.64154852 165.166217 14.962841 161.10742188 15.0390625 C156.64480277 15.0897261 152.39831032 14.88297321 148 14 C147.01 13.01 147.01 13.01 146 12 C141.90154112 10.91755221 141.90154112 10.91755221 138 12 C136.865625 11.835 135.73125 11.67 134.5625 11.5 C131.04687076 10.73714606 131.04687076 10.73714606 128 12 C127.01 12 126.02 12 125 12 C125 11.01 125 10.02 125 9 C122.13655366 8.93340822 119.49513394 8.89294401 116.6875 9.5 C111.13994861 10.53210258 105.99028217 10.86290565 101 8 C101 7.34 101 6.68 101 6 C99.3954444 6.14148989 97.79136233 6.28835686 96.1875 6.4375 C94.84751953 6.55931641 94.84751953 6.55931641 93.48046875 6.68359375 C90.87256441 6.93489767 90.87256441 6.93489767 88 8 C88 7.34 88 6.68 88 6 C79.09 6 70.18 6 61 6 C61 5.34 61 4.68 61 4 C47.47 4 33.94 4 20 4 C20 3.34 20 2.68 20 2 C13.4 2 6.8 2 0 2 C0 1.34 0 0.68 0 0 Z " fill="#011023" transform="translate(249,433)"/>
<path d="M0 0 C8.91 0 17.82 0 27 0 C27 0.99 27 1.98 27 3 C37.395 2.505 37.395 2.505 48 2 C48.495 3.485 48.495 3.485 49 5 C49.59280762 4.92273682 50.18561523 4.84547363 50.79638672 4.76586914 C57.32186594 4.00306006 63.57609096 4.03739109 70.125 4.4375 C71.08148438 4.48970703 72.03796875 4.54191406 73.0234375 4.59570312 C75.34943419 4.72363294 77.67479719 4.85848545 80 5 C80 5.66 80 6.32 80 7 C80.75619629 6.99476318 81.51239258 6.98952637 82.29150391 6.98413086 C85.73599407 6.96327276 89.1804709 6.95031174 92.625 6.9375 C94.40970703 6.92493164 94.40970703 6.92493164 96.23046875 6.91210938 C97.38417969 6.90888672 98.53789062 6.90566406 99.7265625 6.90234375 C100.78439941 6.89710693 101.84223633 6.89187012 102.93212891 6.88647461 C106.0394565 7.00146007 108.93956014 7.46871572 112 8 C113.87031508 8.13751836 115.74327205 8.24271295 117.6171875 8.31640625 C118.63554687 8.35830078 119.65390625 8.40019531 120.703125 8.44335938 C121.74984375 8.48267578 122.7965625 8.52199219 123.875 8.5625 C124.94492188 8.60568359 126.01484375 8.64886719 127.1171875 8.69335938 C129.74467754 8.79892817 132.37225422 8.90103791 135 9 C135 9.66 135 10.32 135 11 C129.46411467 11.02464775 123.928261 11.04283496 118.39233398 11.05493164 C116.5075627 11.05997244 114.62279535 11.06680498 112.73803711 11.07543945 C110.03498364 11.08751617 107.33198169 11.09323068 104.62890625 11.09765625 C103.35703209 11.10539818 103.35703209 11.10539818 102.0594635 11.11329651 C100.03928932 11.11349195 98.01922066 11.06206211 96 11 C95.505 10.505 95.505 10.505 95 10 C92.42011115 9.85236034 89.86351907 9.76504101 87.28125 9.71875 C86.50817505 9.70034058 85.7351001 9.68193115 84.93859863 9.66296387 C82.45914532 9.60403353 79.97962247 9.55128931 77.5 9.5 C74.23942997 9.43255732 70.97909135 9.35888931 67.71875 9.28125 C66.96146606 9.26767456 66.20418213 9.25409912 65.4239502 9.2401123 C60.11280181 9.11280181 60.11280181 9.11280181 59 8 C57.14825294 7.84213692 55.2909089 7.74892644 53.43359375 7.68359375 C51.7465332 7.62075195 51.7465332 7.62075195 50.02539062 7.55664062 C48.84138672 7.51732422 47.65738281 7.47800781 46.4375 7.4375 C45.24962891 7.39431641 44.06175781 7.35113281 42.83789062 7.30664062 C39.89205216 7.20016454 36.9461257 7.09815159 34 7 C34 6.34 34 5.68 34 5 C27.73 5 21.46 5 15 5 C14.67 4.01 14.34 3.02 14 2 C9.38 2 4.76 2 0 2 C0 1.34 0 0.68 0 0 Z " fill="#000B1D" transform="translate(75,475)"/>
<path d="M0 0 C11.22 0 22.44 0 34 0 C34 0.66 34 1.32 34 2 C54.13 2 74.26 2 95 2 C95 1.34 95 0.68 95 0 C106.22 0 117.44 0 129 0 C129 0.66 129 1.32 129 2 C119.1 2 109.2 2 99 2 C99 2.66 99 3.32 99 4 C75.9 4 52.8 4 29 4 C29 3.34 29 2.68 29 2 C28.00202393 2.00785522 28.00202393 2.00785522 26.98388672 2.01586914 C23.94760089 2.03675253 20.91133022 2.0496962 17.875 2.0625 C16.82828125 2.07087891 15.7815625 2.07925781 14.703125 2.08789062 C9.6909095 2.10375207 4.92334088 2.08177213 0 1 C0 0.67 0 0.34 0 0 Z " fill="#002639" transform="translate(181,482)"/>
<path d="M0 0 C11.88 0 23.76 0 36 0 C36 0.66 36 1.32 36 2 C53.49 2 70.98 2 89 2 C89 2.66 89 3.32 89 4 C66.23 4 43.46 4 20 4 C20 3.34 20 2.68 20 2 C13.4 2 6.8 2 0 2 C0 1.34 0 0.68 0 0 Z " fill="#000F1A" transform="translate(249,433)"/>
<path d="M0 0 C2.97 0 5.94 0 9 0 C9 1.32 9 2.64 9 4 C7.68 4 6.36 4 5 4 C5 3.34 5 2.68 5 2 C3.68 2 2.36 2 1 2 C1.33 3.32 1.66 4.64 2 6 C1.34 6 0.68 6 0 6 C0 6.66 0 7.32 0 8 C-1.32 8 -2.64 8 -4 8 C-4 9.98 -4 11.96 -4 14 C-3.34 14 -2.68 14 -2 14 C-2 14.99 -2 15.98 -2 17 C-3.32 17 -4.64 17 -6 17 C-6 17.66 -6 18.32 -6 19 C-5.34 19 -4.68 19 -4 19 C-4 19.66 -4 20.32 -4 21 C-5.32 21 -6.64 21 -8 21 C-8 20.34 -8 19.68 -8 19 C-9.32 19 -10.64 19 -12 19 C-13.80230168 15.17010894 -14.19622241 12.21878192 -14 8 C-13.34 8 -12.68 8 -12 8 C-12 7.34 -12 6.68 -12 6 C-11.34 6 -10.68 6 -10 6 C-10 5.34 -10 4.68 -10 4 C-8.68 4 -7.36 4 -6 4 C-6 3.34 -6 2.68 -6 2 C-4.02 2 -2.04 2 0 2 C0 1.34 0 0.68 0 0 Z " fill="#001D2F" transform="translate(51,448)"/>
<path d="M0 0 C1.63001953 0.15275391 1.63001953 0.15275391 3.29296875 0.30859375 C4.12441406 0.39238281 4.95585938 0.47617187 5.8125 0.5625 C5.8125 0.8925 5.8125 1.2225 5.8125 1.5625 C4.72582031 1.58376953 4.72582031 1.58376953 3.6171875 1.60546875 C-3.28588742 1.94602045 -6.23275459 2.83820787 -11.1875 7.5625 C-14.5625 8.875 -14.5625 8.875 -17.1875 9.5625 C-17.1875 11.5425 -17.1875 13.5225 -17.1875 15.5625 C-18.8375 15.5625 -20.4875 15.5625 -22.1875 15.5625 C-22.1875 14.9025 -22.1875 14.2425 -22.1875 13.5625 C-24.1675 14.2225 -26.1475 14.8825 -28.1875 15.5625 C-28.1875 13.5825 -28.1875 11.6025 -28.1875 9.5625 C-26.8675 9.5625 -25.5475 9.5625 -24.1875 9.5625 C-24.1875 8.9025 -24.1875 8.2425 -24.1875 7.5625 C-23.5275 7.5625 -22.8675 7.5625 -22.1875 7.5625 C-22.5175 6.2425 -22.8475 4.9225 -23.1875 3.5625 C-21.8675 3.5625 -20.5475 3.5625 -19.1875 3.5625 C-19.1875 4.2225 -19.1875 4.8825 -19.1875 5.5625 C-17.8675 5.5625 -16.5475 5.5625 -15.1875 5.5625 C-15.1875 4.2425 -15.1875 2.9225 -15.1875 1.5625 C-12.2175 2.0575 -12.2175 2.0575 -9.1875 2.5625 C-9.1875 1.9025 -9.1875 1.2425 -9.1875 0.5625 C-5.76060364 -0.57979879 -3.57647782 -0.34611076 0 0 Z " fill="#0C2531" transform="translate(75.1875,446.4375)"/>
<path d="M0 0 C6.27 0 12.54 0 19 0 C19 0.66 19 1.32 19 2 C15.18793688 3.7697771 12.23224378 4.23827942 8.04296875 4.1953125 C6.93115234 4.18886719 5.81933594 4.18242187 4.67382812 4.17578125 C2.9480957 4.15064453 2.9480957 4.15064453 1.1875 4.125 C0.01767578 4.11597656 -1.15214844 4.10695313 -2.35742188 4.09765625 C-5.23849053 4.07413732 -8.11913989 4.04126852 -11 4 C-11 4.66 -11 5.32 -11 6 C-14.96 6 -18.92 6 -23 6 C-23 5.34 -23 4.68 -23 4 C-21.68 4 -20.36 4 -19 4 C-19 3.34 -19 2.68 -19 2 C-12.73 2 -6.46 2 0 2 C0 1.34 0 0.68 0 0 Z " fill="#000D21" transform="translate(367,478)"/>
<path d="M0 0 C2.31 0 4.62 0 7 0 C7 0.66 7 1.32 7 2 C13.6 2 20.2 2 27 2 C27 2.66 27 3.32 27 4 C11.16 4 -4.68 4 -21 4 C-21 3.34 -21 2.68 -21 2 C-14.07 2 -7.14 2 0 2 C0 1.34 0 0.68 0 0 Z " fill="#011B3C" transform="translate(242,433)"/>
<path d="M0 0 C0 0.66 0 1.32 0 2 C0.99 2 1.98 2 3 2 C3 2.66 3 3.32 3 4 C4.32 4 5.64 4 7 4 C6.67 6.64 6.34 9.28 6 12 C5.34 12 4.68 12 4 12 C4 12.99 4 13.98 4 15 C3.34 15 2.68 15 2 15 C2 15.66 2 16.32 2 17 C0.68 17 -0.64 17 -2 17 C-2 16.34 -2 15.68 -2 15 C-1.34 15 -0.68 15 0 15 C0 14.01 0 13.02 0 12 C0.66 12 1.32 12 2 12 C2 10.02 2 8.04 2 6 C0.68 6 -0.64 6 -2 6 C-2 5.34 -2 4.68 -2 4 C-4.64 4 -7.28 4 -10 4 C-10 2.68 -10 1.36 -10 0 C-2.25 -1.125 -2.25 -1.125 0 0 Z " fill="#011D32" transform="translate(441,450)"/>
<path d="M0 0 C1.4540625 0.0309375 1.4540625 0.0309375 2.9375 0.0625 C2.9375 1.3825 2.9375 2.7025 2.9375 4.0625 C-0.0325 4.0625 -3.0025 4.0625 -6.0625 4.0625 C-6.0625 4.7225 -6.0625 5.3825 -6.0625 6.0625 C-11.0125 6.0625 -15.9625 6.0625 -21.0625 6.0625 C-21.0625 6.7225 -21.0625 7.3825 -21.0625 8.0625 C-24.0325 7.5675 -24.0325 7.5675 -27.0625 7.0625 C-27.0625 6.4025 -27.0625 5.7425 -27.0625 5.0625 C-23.98632812 4.76953125 -23.98632812 4.76953125 -20.91015625 4.4765625 C-20.30042969 4.33992188 -19.69070312 4.20328125 -19.0625 4.0625 C-18.7325 3.4025 -18.4025 2.7425 -18.0625 2.0625 C-15.73866498 1.780735 -13.40073176 1.61078316 -11.0625 1.5 C-6.96303644 1.29750634 -3.76512807 0.07683935 0 0 Z " fill="#000C1A" transform="translate(87.0625,440.9375)"/>
<path d="M0 0 C12.54 0 25.08 0 38 0 C38 0.66 38 1.32 38 2 C35 4 35 4 33.13110352 3.63330078 C32.42783936 3.42431152 31.7245752 3.21532227 31 3 C29.30261722 2.90946836 27.60213772 2.86936214 25.90234375 2.8671875 C24.93619141 2.86589844 23.97003906 2.86460937 22.97460938 2.86328125 C21.47124023 2.86908203 21.47124023 2.86908203 19.9375 2.875 C18.42833008 2.86919922 18.42833008 2.86919922 16.88867188 2.86328125 C15.92380859 2.86457031 14.95894531 2.86585938 13.96484375 2.8671875 C12.64407837 2.86887939 12.64407837 2.86887939 11.29663086 2.87060547 C8.83749335 2.90841227 8.83749335 2.90841227 6 4 C6 3.34 6 2.68 6 2 C4.02 2 2.04 2 0 2 C0 1.34 0 0.68 0 0 Z " fill="#031A3E" transform="translate(145,437)"/>
<path d="M0 0 C1.32 0 2.64 0 4 0 C4 0.66 4 1.32 4 2 C5.32 2 6.64 2 8 2 C8 3.98 8 5.96 8 8 C7.34 8 6.68 8 6 8 C6 8.99 6 9.98 6 11 C5.34 11 4.68 11 4 11 C4 11.66 4 12.32 4 13 C2.02 13 0.04 13 -2 13 C-1.67 11.35 -1.34 9.7 -1 8 C-0.01 8 0.98 8 2 8 C2 7.34 2 6.68 2 6 C2.66 6 3.32 6 4 6 C4 5.34 4 4.68 4 4 C2.68 4 1.36 4 0 4 C0 2.68 0 1.36 0 0 Z " fill="#0F2339" transform="translate(435,454)"/>
<path d="M0 0 C11.88 0 23.76 0 36 0 C36 0.66 36 1.32 36 2 C33.03 2.66 30.06 3.32 27 4 C27 3.34 27 2.68 27 2 C18.09 2 9.18 2 0 2 C0 1.34 0 0.68 0 0 Z " fill="#011F33" transform="translate(310,437)"/>
<path d="M0 0 C1.65 0 3.3 0 5 0 C5 0.66 5 1.32 5 2 C5.66 2 6.32 2 7 2 C7 3.98 7 5.96 7 8 C5.35 8 3.7 8 2 8 C2 7.34 2 6.68 2 6 C0.02 6.66 -1.96 7.32 -4 8 C-4 6.02 -4 4.04 -4 2 C-2.68 2 -1.36 2 0 2 C0 1.34 0 0.68 0 0 Z " fill="#12233A" transform="translate(51,454)"/>
<path d="M0 0 C1.32 0 2.64 0 4 0 C4 0.66 4 1.32 4 2 C3.34 2 2.68 2 2 2 C2 2.66 2 3.32 2 4 C0.68 4 -0.64 4 -2 4 C-2 5.32 -2 6.64 -2 8 C-2.66 8 -3.32 8 -4 8 C-4 10.97 -4 13.94 -4 17 C-4.66 17 -5.32 17 -6 17 C-7.80230168 13.17010894 -8.19622241 10.21878192 -8 6 C-7.34 6 -6.68 6 -6 6 C-6 5.34 -6 4.68 -6 4 C-5.34 4 -4.68 4 -4 4 C-4 3.34 -4 2.68 -4 2 C-2.68 2 -1.36 2 0 2 C0 1.34 0 0.68 0 0 Z " fill="#00011D" transform="translate(45,450)"/>
<path d="M0 0 C3.3 0 6.6 0 10 0 C10 0.66 10 1.32 10 2 C14.95 2 19.9 2 25 2 C25 2.66 25 3.32 25 4 C17.41 4 9.82 4 2 4 C2 3.34 2 2.68 2 2 C1.34 2 0.68 2 0 2 C0 1.34 0 0.68 0 0 Z " fill="#011724" transform="translate(62,471)"/>
<path d="M0 0 C6.93 0 13.86 0 21 0 C21 0.66 21 1.32 21 2 C19.02 2 17.04 2 15 2 C15 2.66 15 3.32 15 4 C11.37 4 7.74 4 4 4 C4 3.34 4 2.68 4 2 C2.68 2 1.36 2 0 2 C0 1.34 0 0.68 0 0 Z " fill="#000723" transform="translate(346,437)"/>
<path d="M0 0 C4.29 0 8.58 0 13 0 C13 0.66 13 1.32 13 2 C14.65 2 16.3 2 18 2 C18 2.66 18 3.32 18 4 C13.71 4 9.42 4 5 4 C5 3.34 5 2.68 5 2 C3.35 2 1.7 2 0 2 C0 1.34 0 0.68 0 0 Z " fill="#000B37" transform="translate(142,480)"/>
<path d="M0 0 C0 0.33 0 0.66 0 1 C-1.16015625 1.12117188 -2.3203125 1.24234375 -3.515625 1.3671875 C-12.39823654 2.31352361 -21.2093584 3.3797641 -30 5 C-29.67 4.01 -29.34 3.02 -29 2 C-19.36137832 -0.52816306 -9.88563297 -0.18269137 0 0 Z " fill="#2A4151" transform="translate(242,114)"/>
<path d="M0 0 C3.96 0 7.92 0 12 0 C12 0.66 12 1.32 12 2 C10.68 2 9.36 2 8 2 C8 2.66 8 3.32 8 4 C3.71 4 -0.58 4 -5 4 C-5 3.34 -5 2.68 -5 2 C-3.35 2 -1.7 2 0 2 C0 1.34 0 0.68 0 0 Z " fill="#000A37" transform="translate(336,480)"/>
<path d="M0 0 C4.29 0 8.58 0 13 0 C13 0.66 13 1.32 13 2 C11.35 2 9.7 2 8 2 C8 2.66 8 3.32 8 4 C4.04 4 0.08 4 -4 4 C-4 3.34 -4 2.68 -4 2 C-2.68 2 -1.36 2 0 2 C0 1.34 0 0.68 0 0 Z " fill="#001011" transform="translate(348,480)"/>
<path d="M0 0 C1.32 0 2.64 0 4 0 C4 0.66 4 1.32 4 2 C5.65 2 7.3 2 9 2 C9 2.66 9 3.32 9 4 C9.66 4 10.32 4 11 4 C11 4.66 11 5.32 11 6 C11.66 6 12.32 6 13 6 C13 7.98 13 9.96 13 12 C12.34 12 11.68 12 11 12 C11 10.68 11 9.36 11 8 C9.68 8 8.36 8 7 8 C7 6.68 7 5.36 7 4 C5.68 4 4.36 4 3 4 C3 3.34 3 2.68 3 2 C2.01 2 1.02 2 0 2 C0 1.34 0 0.68 0 0 Z " fill="#00001B" transform="translate(441,450)"/>
<path d="M0 0 C2.31 0 4.62 0 7 0 C7 0.66 7 1.32 7 2 C5.02 2 3.04 2 1 2 C1 2.66 1 3.32 1 4 C0.34 4 -0.32 4 -1 4 C-1 4.99 -1 5.98 -1 7 C-3.31 7 -5.62 7 -8 7 C-8 6.34 -8 5.68 -8 5 C-7.34 5 -6.68 5 -6 5 C-6 4.01 -6 3.02 -6 2 C-4.02 2 -2.04 2 0 2 C0 1.34 0 0.68 0 0 Z " fill="#051433" transform="translate(394,473)"/>
<path d="M0 0 C0 0.66 0 1.32 0 2 C1.32 2 2.64 2 4 2 C4 2.99 4 3.98 4 5 C-0.62 5 -5.24 5 -10 5 C-9.34 4.67 -8.68 4.34 -8 4 C-8 3.34 -8 2.68 -8 2 C-5.09399739 0.74335022 -3.20395416 0 0 0 Z " fill="#13253E" transform="translate(384,473)"/>
<path d="M0 0 C2.64 0 5.28 0 8 0 C7.34 1.65 6.68 3.3 6 5 C3.36 5 0.72 5 -2 5 C-2 4.01 -2 3.02 -2 2 C-1.34 2 -0.68 2 0 2 C0 1.34 0 0.68 0 0 Z " fill="#001213" transform="translate(395,475)"/>
<path d="M0 0 C4.95 0 9.9 0 15 0 C15 0.66 15 1.32 15 2 C11.7 2 8.4 2 5 2 C5 2.66 5 3.32 5 4 C3.35 4 1.7 4 0 4 C0 2.68 0 1.36 0 0 Z " fill="#000B17" transform="translate(422,471)"/>
<path d="M0 0 C5.61 0 11.22 0 17 0 C17 0.66 17 1.32 17 2 C14.02148438 2.34179688 14.02148438 2.34179688 11.04296875 2.68359375 C8.80603607 2.97170735 8.80603607 2.97170735 6 4 C6 3.34 6 2.68 6 2 C4.02 2 2.04 2 0 2 C0 1.34 0 0.68 0 0 Z " fill="#012527" transform="translate(145,437)"/>
<path d="M0 0 C2.97 0 5.94 0 9 0 C9 1.32 9 2.64 9 4 C7.68 4 6.36 4 5 4 C5 3.34 5 2.68 5 2 C3.68 2 2.36 2 1 2 C1.33 3.32 1.66 4.64 2 6 C1.34 6 0.68 6 0 6 C0 5.34 0 4.68 0 4 C-0.66 4 -1.32 4 -2 4 C-2 3.34 -2 2.68 -2 2 C-1.34 2 -0.68 2 0 2 C0 1.34 0 0.68 0 0 Z " fill="#000F28" transform="translate(51,448)"/>
<path d="M0 0 C1.65 0 3.3 0 5 0 C5 0.66 5 1.32 5 2 C4.34 2 3.68 2 3 2 C3 2.66 3 3.32 3 4 C4.32 4 5.64 4 7 4 C7 4.66 7 5.32 7 6 C5.35 6 3.7 6 2 6 C2 5.34 2 4.68 2 4 C0.02 4 -1.96 4 -4 4 C-4 3.34 -4 2.68 -4 2 C-2.68 2 -1.36 2 0 2 C0 1.34 0 0.68 0 0 Z " fill="#000916" transform="translate(51,467)"/>
<path d="M0 0 C2.31 0 4.62 0 7 0 C7 0.66 7 1.32 7 2 C10.96 2 14.92 2 19 2 C19 2.66 19 3.32 19 4 C14.74239209 5.16116579 11.30779205 4.89407005 7 4 C6.34 3.34 5.68 2.68 5 2 C2.42938689 1.35232207 2.42938689 1.35232207 0 1 C0 0.67 0 0.34 0 0 Z " fill="#0E2435" transform="translate(390,443)"/>
<path d="M0 0 C1.98 0 3.96 0 6 0 C6 0.99 6 1.98 6 3 C6.66 3 7.32 3 8 3 C8 3.66 8 4.32 8 5 C6.02 5 4.04 5 2 5 C2 4.34 2 3.68 2 3 C1.34 3 0.68 3 0 3 C0 2.01 0 1.02 0 0 Z " fill="#000D33" transform="translate(96,475)"/>
<path d="M0 0 C0.98120464 3.05263664 0.98120464 4.94736336 0 8 C0.66 8 1.32 8 2 8 C2 9.65 2 11.3 2 13 C1.34 13 0.68 13 0 13 C-1.80230168 9.17010894 -2.19622241 6.21878192 -2 2 C-1.34 2 -0.68 2 0 2 C0 1.34 0 0.68 0 0 Z " fill="#000006" transform="translate(39,454)"/>
<path d="M0 0 C1.32 0 2.64 0 4 0 C4 0.66 4 1.32 4 2 C3.34 2 2.68 2 2 2 C2 2.66 2 3.32 2 4 C-0.97 4 -3.94 4 -7 4 C-7 3.34 -7 2.68 -7 2 C-4.69 2 -2.38 2 0 2 C0 1.34 0 0.68 0 0 Z " fill="#112735" transform="translate(416,469)"/>
<path d="M0 0 C1.32 0 2.64 0 4 0 C4 0.66 4 1.32 4 2 C5.98 2 7.96 2 10 2 C10 2.66 10 3.32 10 4 C7.03 4 4.06 4 1 4 C0.67 2.68 0.34 1.36 0 0 Z " fill="#102735" transform="translate(71,469)"/>
<path d="M0 0 C1.65 0 3.3 0 5 0 C5 0.66 5 1.32 5 2 C4.01 2 3.02 2 2 2 C2 3.32 2 4.64 2 6 C0.68 6 -0.64 6 -2 6 C-2 4.68 -2 3.36 -2 2 C-1.34 2 -0.68 2 0 2 C0 1.34 0 0.68 0 0 Z " fill="#061534" transform="translate(420,469)"/>
<path d="M0 0 C0 1.65 0 3.3 0 5 C-1.65 5 -3.3 5 -5 5 C-5 5.66 -5 6.32 -5 7 C-5.66 7 -6.32 7 -7 7 C-6.67 5.68 -6.34 4.36 -6 3 C-5.34 3 -4.68 3 -4 3 C-4 2.34 -4 1.68 -4 1 C-2 0 -2 0 0 0 Z " fill="#00001B" transform="translate(452,462)"/>
<path d="M0 0 C0.80824219 0.10183594 1.61648437 0.20367187 2.44921875 0.30859375 C3.06410156 0.39238281 3.67898437 0.47617187 4.3125 0.5625 C4.3125 1.2225 4.3125 1.8825 4.3125 2.5625 C0.3525 2.5625 -3.6075 2.5625 -7.6875 2.5625 C-7.6875 1.9025 -7.6875 1.2425 -7.6875 0.5625 C-4.59271121 -0.46909626 -3.16118607 -0.41232862 0 0 Z " fill="#002021" transform="translate(137.6875,479.4375)"/>
<path d="M0 0 C2.64 0 5.28 0 8 0 C8 0.66 8 1.32 8 2 C7.34 2 6.68 2 6 2 C6 2.66 6 3.32 6 4 C4.68 4 3.36 4 2 4 C2 3.34 2 2.68 2 2 C1.34 2 0.68 2 0 2 C0 1.34 0 0.68 0 0 Z " fill="#00212F" transform="translate(45,465)"/>
<path d="M0 0 C2.64 0 5.28 0 8 0 C8 1.32 8 2.64 8 4 C6.68 4 5.36 4 4 4 C4 3.34 4 2.68 4 2 C2.68 2 1.36 2 0 2 C0 1.34 0 0.68 0 0 Z " fill="#000735" transform="translate(393,441)"/>
<path d="M0 0 C2.64 0 5.28 0 8 0 C8 0.66 8 1.32 8 2 C6.68 2 5.36 2 4 2 C4 2.66 4 3.32 4 4 C2.68 4 1.36 4 0 4 C0 2.68 0 1.36 0 0 Z " fill="#000733" transform="translate(90,441)"/>
<path d="M0 0 C3 1 3 1 5 3 C4.01 3 3.02 3 2 3 C2 3.66 2 4.32 2 5 C-0.31 5 -2.62 5 -5 5 C-2 3 -2 3 0 3 C0 2.01 0 1.02 0 0 Z " fill="#121C3D" transform="translate(365,475)"/>
<path d="M0 0 C0 0.66 0 1.32 0 2 C0.66 2 1.32 2 2 2 C2 2.66 2 3.32 2 4 C-0.64 4 -3.28 4 -6 4 C-6 3.34 -6 2.68 -6 2 C-2.25 0 -2.25 0 0 0 Z " fill="#00232F" transform="translate(435,467)"/>
<path d="M0 0 C0.66 0 1.32 0 2 0 C2 0.66 2 1.32 2 2 C2.66 2 3.32 2 4 2 C4 2.66 4 3.32 4 4 C4.66 4 5.32 4 6 4 C6 4.66 6 5.32 6 6 C4.68 6 3.36 6 2 6 C2 5.34 2 4.68 2 4 C1.34 4 0.68 4 0 4 C0 2.68 0 1.36 0 0 Z " fill="#00002A" transform="translate(41,463)"/>
<path d="M0 0 C0.66 0 1.32 0 2 0 C2 0.66 2 1.32 2 2 C2.66 2 3.32 2 4 2 C4 3.98 4 5.96 4 8 C3.34 8 2.68 8 2 8 C2 6.68 2 5.36 2 4 C1.34 4 0.68 4 0 4 C0 2.68 0 1.36 0 0 Z " fill="#000000" transform="translate(450,454)"/>
<path d="M0 0 C2.31 0 4.62 0 7 0 C7 0.66 7 1.32 7 2 C8.32 2.33 9.64 2.66 11 3 C8 4 8 4 5 4 C5 3.01 5 2.02 5 1 C3.35 1 1.7 1 0 1 C0 0.67 0 0.34 0 0 Z " fill="#0E1E3A" transform="translate(369,441)"/>
<path d="M0 0 C1.98 0 3.96 0 6 0 C3.8125 2.0625 3.8125 2.0625 1 4 C-1.8125 3.75 -1.8125 3.75 -4 3 C-2.68 2.67 -1.36 2.34 0 2 C0 1.34 0 0.68 0 0 Z " fill="#0F1F3A" transform="translate(115,441)"/>
<path d="M0 0 C1.32 0 2.64 0 4 0 C4 0.66 4 1.32 4 2 C4.99 2.33 5.98 2.66 7 3 C4.03 3 1.06 3 -2 3 C-1.34 2.67 -0.68 2.34 0 2 C0 1.34 0 0.68 0 0 Z " fill="#0D2C31" transform="translate(376,475)"/>
<path d="M0 0 C3.37462715 0.54723683 5.08235 1.0549 8 3 C5.36 3 2.72 3 0 3 C0 2.01 0 1.02 0 0 Z " fill="#131C3D" transform="translate(124,477)"/>
<path d="M0 0 C0 0.66 0 1.32 0 2 C-5.625 4.125 -5.625 4.125 -9 3 C-9 2.34 -9 1.68 -9 1 C-2.25 0 -2.25 0 0 0 Z " fill="#042229" transform="translate(393,441)"/>
<path d="M0 0 C2.64 0 5.28 0 8 0 C5.23776722 2.76223278 2.79293383 2.57856291 -1 3 C-0.67 2.01 -0.34 1.02 0 0 Z " fill="#1D354F" transform="translate(213,116)"/>
</svg>
